Oswald-Bold.ufo
<glyph name="numbersign" format="1">
  <advance width="1150"/>
  <unicode hex="0023"/>
  <outline>
    <contour>
      <point x="485" y="871" type="line"/>
      <point x="627" y="871" type="line"/>
      <point x="643" y="985" type="line"/>
      <point x="501" y="985" type="line"/>
    </contour>
    <contour>
      <point x="153" y="0" type="line"/>
      <point x="241" y="616" type="line"/>
      <point x="99" y="616" type="line"/>
      <point x="99" y="871" type="line"/>
      <point x="277" y="871" type="line"/>
      <point x="293" y="985" type="line"/>
      <point x="99" y="985" type="line"/>
      <point x="99" y="1240" type="line"/>
      <point x="330" y="1240" type="line"/>
      <point x="410" y="1801" type="line"/>
      <point x="619" y="1801" type="line"/>
      <point x="538" y="1240" type="line"/>
      <point x="680" y="1240" type="line"/>
      <point x="760" y="1801" type="line"/>
      <point x="969" y="1801" type="line"/>
      <point x="888" y="1240" type="line"/>
      <point x="1024" y="1240" type="line"/>
      <point x="1024" y="985" type="line"/>
      <point x="851" y="985" type="line"/>
      <point x="835" y="871" type="line"/>
      <point x="1024" y="871" type="line"/>
      <point x="1024" y="616" type="line"/>
      <point x="798" y="616" type="line"/>
      <point x="709" y="0" type="line"/>
      <point x="503" y="0" type="line"/>
      <point x="591" y="616" type="line"/>
      <point x="448" y="616" type="line"/>
      <point x="359" y="0" type="line"/>
    </contour>
  </outline>
</glyph>
<glyph name="parenleft" format="1">
  <advance width="696"/>
  <unicode hex="0028"/>
  <outline>
    <contour>
      <point x="637" y="158" type="curve"/>
      <point x="637" y="-64" type="line"/>
      <point x="141" y="-67"/>
      <point x="156" y="568"/>
      <point x="156" y="921" type="curve" smooth="yes"/>
      <point x="156" y="1275"/>
      <point x="141" y="1909"/>
      <point x="637" y="1907" type="curve"/>
      <point x="637" y="1685" type="line"/>
      <point x="397" y="1689"/>
      <point x="443" y="1059"/>
      <point x="443" y="921" type="curve" smooth="yes"/>
      <point x="443" y="784"/>
      <point x="397" y="154"/>
    </contour>
  </outline>
</glyph>
<glyph name="two" format="1">
  <advance width="1067"/>
  <unicode hex="0032"/>
  <outline>
    <contour>
      <point x="1018" y="1339" type="curve" smooth="yes"/>
      <point x="1018" y="921"/>
      <point x="651" y="604"/>
      <point x="458" y="346" type="curve"/>
      <point x="1018" y="346" type="line"/>
      <point x="1018" y="0" type="line"/>
      <point x="60" y="0" type="line"/>
      <point x="60" y="309" type="line"/>
      <point x="498" y="936" type="line" smooth="yes"/>
      <point x="580" y="1053"/>
      <point x="672" y="1192"/>
      <point x="672" y="1339" type="curve" smooth="yes"/>
      <point x="672" y="1417"/>
      <point x="635" y="1531"/>
      <point x="540" y="1531" type="curve" smooth="yes"/>
      <point x="392" y="1531"/>
      <point x="406" y="1262"/>
      <point x="406" y="1163" type="curve"/>
      <point x="61" y="1163" type="line"/>
      <point x="61" y="1276" type="line" smooth="yes"/>
      <point x="61" y="1596"/>
      <point x="190" y="1835"/>
      <point x="540" y="1835" type="curve" smooth="yes"/>
      <point x="848" y="1835"/>
      <point x="1018" y="1640"/>
    </contour>
  </outline>
</glyph>
<glyph name="nine" format="1">
  <advance width="1135"/>
  <unicode hex="0039"/>
  <outline>
    <contour>
      <point x="702" y="1034" type="curve"/>
      <point x="702" y="1271" type="line" smooth="yes"/>
      <point x="702" y="1358"/>
      <point x="686" y="1530"/>
      <point x="566" y="1530" type="curve" smooth="yes"/>
      <point x="431" y="1530"/>
      <point x="432" y="1321"/>
      <point x="432" y="1228" type="curve" smooth="yes"/>
      <point x="432" y="1132"/>
      <point x="430" y="953"/>
      <point x="566" y="953" type="curve" smooth="yes"/>
      <point x="621" y="953"/>
      <point x="673" y="989"/>
    </contour>
    <contour>
      <point x="101" y="489" type="curve"/>
      <point x="101" y="519" type="line"/>
      <point x="442" y="519" type="line"/>
      <point x="442" y="425"/>
      <point x="445" y="271"/>
      <point x="566" y="271" type="curve" smooth="yes"/>
      <point x="715" y="271"/>
      <point x="704" y="569"/>
      <point x="704" y="670" type="curve" smooth="yes"/>
      <point x="704" y="715" type="line"/>
      <point x="643" y="681"/>
      <point x="573" y="665"/>
      <point x="504" y="665" type="curve" smooth="yes"/>
      <point x="167" y="665"/>
      <point x="81" y="922"/>
      <point x="81" y="1212" type="curve" smooth="yes"/>
      <point x="81" y="1519"/>
      <point x="212" y="1835"/>
      <point x="566" y="1835" type="curve" smooth="yes"/>
      <point x="911" y="1835"/>
      <point x="1051" y="1512"/>
      <point x="1051" y="1212" type="curve" smooth="yes"/>
      <point x="1051" y="652" type="line" smooth="yes"/>
      <point x="1051" y="332"/>
      <point x="955" y="-29"/>
      <point x="566" y="-29" type="curve" smooth="yes"/>
      <point x="254" y="-29"/>
      <point x="110" y="194"/>
    </contour>
  </outline>
</glyph>
<glyph name="equal" format="1">
  <advance width="762"/>
  <unicode hex="003D"/>
  <outline>
    <contour>
      <point x="70" y="258" type="line"/>
      <point x="70" y="480" type="line"/>
      <point x="682" y="480" type="line"/>
      <point x="682" y="258" type="line"/>
    </contour>
    <contour>
      <point x="70" y="583" type="line"/>
      <point x="70" y="806" type="line"/>
      <point x="682" y="806" type="line"/>
      <point x="682" y="583" type="line"/>
    </contour>
  </outline>
</glyph>
<glyph name="greater" format="1">
  <advance width="865"/>
  <unicode hex="003E"/>
  <outline>
    <contour>
      <point x="115" y="53" type="line"/>
      <point x="115" y="345" type="line"/>
      <point x="559" y="664" type="line"/>
      <point x="115" y="979" type="line"/>
      <point x="115" y="1272" type="line"/>
      <point x="791" y="799" type="line"/>
      <point x="791" y="525" type="line"/>
    </contour>
  </outline>
</glyph>
<glyph name="C" format="1">
  <advance width="1174"/>
  <unicode hex="0043"/>
  <outline>
    <contour>
      <point x="84" y="601" type="curve" smooth="yes"/>
      <point x="84" y="1197" type="line" smooth="yes"/>
      <point x="84" y="1553"/>
      <point x="205" y="1835"/>
      <point x="606" y="1835" type="curve" smooth="yes"/>
      <point x="979" y="1835"/>
      <point x="1111" y="1582"/>
      <point x="1111" y="1235" type="curve" smooth="yes"/>
      <point x="1111" y="1080" type="line"/>
      <point x="753" y="1080" type="line"/>
      <point x="753" y="1246" type="line" smooth="yes"/>
      <point x="753" y="1380"/>
      <point x="744" y="1554"/>
      <point x="606" y="1554" type="curve" smooth="yes"/>
      <point x="469" y="1554"/>
      <point x="448" y="1399"/>
      <point x="448" y="1288" type="curve" smooth="yes"/>
      <point x="448" y="511" type="line" smooth="yes"/>
      <point x="448" y="399"/>
      <point x="468" y="246"/>
      <point x="606" y="246" type="curve" smooth="yes"/>
      <point x="739" y="246"/>
      <point x="756" y="415"/>
      <point x="755" y="555" type="curve"/>
      <point x="755" y="740" type="line"/>
      <point x="1111" y="740" type="line"/>
      <point x="1111" y="588" type="line"/>
      <point x="1106" y="264"/>
      <point x="997" y="-35"/>
      <point x="606" y="-35" type="curve" smooth="yes"/>
      <point x="206" y="-35"/>
      <point x="84" y="254"/>
    </contour>
  </outline>
</glyph>
<glyph name="L" format="1">
  <advance width="838"/>
  <unicode hex="004C"/>
  <outline>
    <contour>
      <point x="107" y="0" type="line"/>
      <point x="107" y="1800" type="line"/>
      <point x="471" y="1800" type="line"/>
      <point x="471" y="250" type="line"/>
      <point x="829" y="250" type="line"/>
      <point x="829" y="0" type="line"/>
    </contour>
  </outline>
</glyph>
<glyph name="R" format="1">
  <advance width="1122"/>
  <unicode hex="0052"/>
  <outline>
    <contour>
      <point x="471" y="1051" type="line"/>
      <point x="575" y="1051" type="line" smooth="yes"/>
      <point x="696" y="1051"/>
      <point x="715" y="1230"/>
      <point x="715" y="1297" type="curve" smooth="yes"/>
      <point x="715" y="1363"/>
      <point x="701" y="1533"/>
      <point x="592" y="1533" type="curve" smooth="yes"/>
      <point x="471" y="1533" type="line"/>
    </contour>
    <contour>
      <point x="107" y="0" type="line"/>
      <point x="107" y="1800" type="line"/>
      <point x="503" y="1800" type="line" smooth="yes"/>
      <point x="851" y="1800"/>
      <point x="1077" y="1676"/>
      <point x="1077" y="1326" type="curve" smooth="yes"/>
      <point x="1077" y="1168"/>
      <point x="1055" y="966"/>
      <point x="832" y="870" type="curve"/>
      <point x="922" y="584"/>
      <point x="1013" y="299"/>
      <point x="1114" y="0" type="curve"/>
      <point x="737" y="0" type="line"/>
      <point x="531" y="829" type="line"/>
      <point x="471" y="829" type="line"/>
      <point x="471" y="0" type="line"/>
    </contour>
  </outline>
</glyph>
<glyph name="Z" format="1">
  <advance width="998"/>
  <unicode hex="005A"/>
  <outline>
    <contour>
      <point x="80" y="0" type="line"/>
      <point x="80" y="228" type="line"/>
      <point x="555" y="1549" type="line"/>
      <point x="135" y="1549" type="line"/>
      <point x="135" y="1799" type="line"/>
      <point x="911" y="1799" type="line"/>
      <point x="911" y="1570" type="line"/>
      <point x="434" y="250" type="line"/>
      <point x="911" y="250" type="line"/>
      <point x="911" y="0" type="line"/>
    </contour>
  </outline>
</glyph>
<glyph name="bracketright" format="1">
  <advance width="728"/>
  <unicode hex="005D"/>
  <outline>
    <contour>
      <point x="76" y="-64" type="line"/>
      <point x="76" y="64" type="line"/>
      <point x="332" y="64" type="line"/>
      <point x="332" y="1728" type="line"/>
      <point x="76" y="1728" type="line"/>
      <point x="76" y="1856" type="line"/>
      <point x="588" y="1856" type="line"/>
      <point x="588" y="-64" type="line"/>
    </contour>
  </outline>
</glyph>
<glyph name="grave" format="1">
  <advance width="640"/>
  <unicode hex="0060"/>
  <outline>
    <contour>
      <point x="353" y="1393" type="line"/>
      <point x="76" y="1835" type="line"/>
      <point x="422" y="1835" type="line"/>
      <point x="558" y="1393" type="line"/>
    </contour>
  </outline>
</glyph>
<glyph name="p" format="1">
  <advance width="999"/>
  <unicode hex="0070"/>
  <outline>
    <contour>
      <point x="95" y="-371" type="line"/>
      <point x="95" y="1305" type="line"/>
      <point x="432" y="1305" type="line"/>
      <point x="432" y="1217" type="line"/>
      <point x="483" y="1283"/>
      <point x="561" y="1335"/>
      <point x="649" y="1335" type="curve" smooth="yes"/>
      <point x="806" y="1335"/>
      <point x="920" y="1181"/>
      <point x="920" y="1021" type="curve" smooth="yes"/>
      <point x="920" y="250" type="line" smooth="yes"/>
      <point x="920" y="105"/>
      <point x="810" y="-29"/>
      <point x="659" y="-29" type="curve" smooth="yes"/>
      <point x="568" y="-29"/>
      <point x="485" y="20"/>
      <point x="432" y="98" type="curve"/>
      <point x="432" y="-371" type="line"/>
    </contour>
    <contour>
      <point x="583" y="319" type="curve" smooth="yes"/>
      <point x="583" y="994" type="line" smooth="yes"/>
      <point x="583" y="1033"/>
      <point x="578" y="1080"/>
      <point x="527" y="1080" type="curve" smooth="yes"/>
      <point x="488" y="1080"/>
      <point x="451" y="1030"/>
      <point x="432" y="1005" type="curve"/>
      <point x="432" y="297" type="line"/>
      <point x="450" y="272"/>
      <point x="487" y="225"/>
      <point x="527" y="225" type="curve" smooth="yes"/>
      <point x="579" y="225"/>
      <point x="583" y="277"/>
    </contour>
  </outline>
</glyph>
<glyph name="r" format="1">
  <advance width="714"/>
  <unicode hex="0072"/>
  <outline>
    <contour>
      <point x="94" y="0" type="line"/>
      <point x="94" y="1305" type="line"/>
      <point x="429" y="1305" type="line"/>
      <point x="429" y="1199" type="line"/>
      <point x="472" y="1269"/>
      <point x="532" y="1324"/>
      <point x="609" y="1324" type="curve" smooth="yes"/>
      <point x="640" y="1324"/>
      <point x="669" y="1319"/>
      <point x="700" y="1314" type="curve"/>
      <point x="700" y="1030" type="line"/>
      <point x="663" y="1034"/>
      <point x="608" y="1040"/>
      <point x="569" y="1040" type="curve" smooth="yes"/>
      <point x="477" y="1040"/>
      <point x="429" y="981"/>
      <point x="429" y="876" type="curve" smooth="yes"/>
      <point x="429" y="0" type="line"/>
    </contour>
  </outline>
</glyph>
<glyph name="u" format="1">
  <advance width="1006"/>
  <unicode hex="0075"/>
  <outline>
    <contour>
      <point x="87" y="253" type="curve" smooth="yes"/>
      <point x="87" y="1305" type="line"/>
      <point x="424" y="1305" type="line"/>
      <point x="424" y="335" type="line" smooth="yes"/>
      <point x="424" y="298"/>
      <point x="424" y="225"/>
      <point x="470" y="225" type="curve" smooth="yes"/>
      <point x="514" y="225"/>
      <point x="554" y="273"/>
      <point x="575" y="299" type="curve"/>
      <point x="575" y="1305" type="line"/>
      <point x="912" y="1305" type="line"/>
      <point x="912" y="0" type="line"/>
      <point x="575" y="0" type="line"/>
      <point x="575" y="113" type="line"/>
      <point x="512" y="36"/>
      <point x="417" y="-29"/>
      <point x="318" y="-29" type="curve" smooth="yes"/>
      <point x="172" y="-29"/>
      <point x="87" y="122"/>
    </contour>
  </outline>
</glyph>
<glyph name="braceright" format="1">
  <advance width="762"/>
  <unicode hex="007D"/>
  <outline>
    <contour>
      <point x="70" y="-64" type="curve"/>
      <point x="70" y="158" type="line"/>
      <point x="266" y="157"/>
      <point x="258" y="332"/>
      <point x="266" y="520" type="curve" smooth="yes"/>
      <point x="273" y="675"/>
      <point x="291" y="838"/>
      <point x="442" y="922" type="curve"/>
      <point x="294" y="1015"/>
      <point x="265" y="1283"/>
      <point x="265" y="1439" type="curve" smooth="yes"/>
      <point x="265" y="1623"/>
      <point x="264" y="1686"/>
      <point x="70" y="1685" type="curve"/>
      <point x="70" y="1907" type="line"/>
      <point x="434" y="1907"/>
      <point x="553" y="1825"/>
      <point x="553" y="1439" type="curve" smooth="yes"/>
      <point x="553" y="1342"/>
      <point x="527" y="1064"/>
      <point x="682" y="1065" type="curve"/>
      <point x="682" y="778" type="line"/>
      <point x="528" y="780"/>
      <point x="553" y="655"/>
      <point x="553" y="532" type="curve" smooth="yes"/>
      <point x="553" y="163"/>
      <point x="475" y="-64"/>
    </contour>
  </outline>
</glyph>
<glyph name="exclamdown" format="1">
  <advance width="524"/>
  <unicode hex="00A1"/>
  <outline>
    <contour>
      <point x="438" y="1305" type="line"/>
      <point x="438" y="987" type="line"/>
      <point x="115" y="987" type="line"/>
      <point x="115" y="1305" type="line"/>
    </contour>
    <contour>
      <point x="334" y="842" type="line"/>
      <point x="438" y="-496" type="line"/>
      <point x="95" y="-496" type="line"/>
      <point x="218" y="842" type="line"/>
    </contour>
  </outline>
</glyph>
<glyph name="guillemotright" format="1">
  <advance width="1054"/>
  <unicode hex="00BB"/>
  <outline>
    <contour>
      <point x="79" y="64" type="line"/>
      <point x="79" y="384" type="line"/>
      <point x="335" y="641" type="line"/>
      <point x="79" y="896" type="line"/>
      <point x="79" y="1216" type="line"/>
      <point x="527" y="704" type="line"/>
      <point x="527" y="576" type="line"/>
    </contour>
    <contour>
      <point x="527" y="64" type="line"/>
      <point x="527" y="384" type="line"/>
      <point x="783" y="641" type="line"/>
      <point x="527" y="896" type="line"/>
      <point x="527" y="1216" type="line"/>
      <point x="975" y="704" type="line"/>
      <point x="975" y="576" type="line"/>
    </contour>
  </outline>
</glyph>
<glyph name="onehalf" format="1">
  <advance width="1694"/>
  <unicode hex="00BD"/>
  <outline>
    <contour>
      <point x="1615" y="647" type="curve" smooth="yes"/>
      <point x="1615" y="493"/>
      <point x="1385" y="249"/>
      <point x="1305" y="144" type="curve"/>
      <point x="1615" y="144" type="line"/>
      <point x="1615" y="-15" type="line"/>
      <point x="1068" y="-15" type="line"/>
      <point x="1068" y="133" type="line"/>
      <point x="1111" y="190"/>
      <point x="1392" y="495"/>
      <point x="1392" y="647" type="curve" smooth="yes"/>
      <point x="1392" y="684"/>
      <point x="1398" y="762"/>
      <point x="1342" y="762" type="curve" smooth="yes"/>
      <point x="1284" y="762"/>
      <point x="1291" y="671"/>
      <point x="1291" y="633" type="curve"/>
      <point x="1068" y="633" type="line"/>
      <point x="1068" y="806"/>
      <point x="1163" y="920"/>
      <point x="1342" y="920" type="curve" smooth="yes"/>
      <point x="1513" y="920"/>
      <point x="1615" y="817"/>
    </contour>
    <contour>
      <point x="424" y="0" type="line"/>
      <point x="1001" y="1835" type="line"/>
      <point x="1181" y="1835" type="line"/>
      <point x="603" y="0" type="line"/>
    </contour>
    <contour>
      <point x="198" y="648" type="line"/>
      <point x="198" y="1231" type="line"/>
      <point x="69" y="1231" type="line"/>
      <point x="69" y="1384" type="line"/>
      <point x="169" y="1434"/>
      <point x="264" y="1496"/>
      <point x="335" y="1583" type="curve"/>
      <point x="421" y="1583" type="line"/>
      <point x="421" y="648" type="line"/>
    </contour>
  </outline>
</glyph>
<glyph name="threequarters" format="1">
  <advance width="1895"/>
  <unicode hex="00BE"/>
  <outline>
    <contour>
      <point x="587" y="0" type="line"/>
      <point x="1164" y="1835" type="line"/>
      <point x="1344" y="1835" type="line"/>
      <point x="766" y="0" type="line"/>
    </contour>
    <contour>
      <point x="1300" y="402" type="line"/>
      <point x="1393" y="402" type="line"/>
      <point x="1393" y="586" type="line"/>
    </contour>
    <contour>
      <point x="1069" y="244" type="line"/>
      <point x="1069" y="392" type="line"/>
      <point x="1420" y="985" type="line"/>
      <point x="1615" y="985" type="line"/>
      <point x="1615" y="402" type="line"/>
      <point x="1745" y="402" type="line"/>
      <point x="1745" y="244" type="line"/>
      <point x="1615" y="244" type="line"/>
      <point x="1615" y="-15" type="line"/>
      <point x="1393" y="-15" type="line"/>
      <point x="1393" y="244" type="line"/>
    </contour>
    <contour>
      <point x="136" y="935" type="curve"/>
      <point x="358" y="935" type="line"/>
      <point x="358" y="896"/>
      <point x="352" y="806"/>
      <point x="409" y="806" type="curve" smooth="yes"/>
      <point x="465" y="806"/>
      <point x="460" y="883"/>
      <point x="460" y="921" type="curve" smooth="yes"/>
      <point x="460" y="1015"/>
      <point x="425" y="1037"/>
      <point x="330" y="1037" type="curve"/>
      <point x="330" y="1195" type="line"/>
      <point x="426" y="1195"/>
      <point x="460" y="1217"/>
      <point x="460" y="1310" type="curve" smooth="yes"/>
      <point x="460" y="1349"/>
      <point x="465" y="1426"/>
      <point x="409" y="1426" type="curve" smooth="yes"/>
      <point x="352" y="1426"/>
      <point x="358" y="1333"/>
      <point x="358" y="1296" type="curve"/>
      <point x="136" y="1296" type="line"/>
      <point x="136" y="1468"/>
      <point x="230" y="1583"/>
      <point x="409" y="1583" type="curve" smooth="yes"/>
      <point x="581" y="1583"/>
      <point x="683" y="1481"/>
      <point x="683" y="1310" type="curve" smooth="yes"/>
      <point x="683" y="1215"/>
      <point x="638" y="1150"/>
      <point x="551" y="1115" type="curve"/>
      <point x="637" y="1080"/>
      <point x="683" y="1017"/>
      <point x="683" y="921" type="curve" smooth="yes"/>
      <point x="683" y="751"/>
      <point x="582" y="648"/>
      <point x="409" y="648" type="curve" smooth="yes"/>
      <point x="230" y="648"/>
      <point x="136" y="762"/>
    </contour>
  </outline>
</glyph>
<glyph name="Oslash" format="1">
  <advance width="1221"/>
  <unicode hex="00D8"/>
  <outline>
    <contour>
      <point x="773" y="501" type="curve" smooth="yes"/>
      <point x="772" y="1288" type="line" smooth="yes"/>
      <point x="772" y="1401"/>
      <point x="748" y="1554"/>
      <point x="610" y="1554" type="curve" smooth="yes"/>
      <point x="472" y="1554"/>
      <point x="448" y="1401"/>
      <point x="448" y="1288" type="curve" smooth="yes"/>
      <point x="448" y="501" type="line" smooth="yes"/>
      <point x="448" y="385"/>
      <point x="470" y="236"/>
      <point x="611" y="236" type="curve" smooth="yes"/>
      <point x="751" y="236"/>
      <point x="773" y="385"/>
    </contour>
    <contour>
      <point x="258" y="-250" type="line"/>
      <point x="334" y="27" type="line"/>
      <point x="150" y="129"/>
      <point x="84" y="343"/>
      <point x="84" y="592" type="curve" smooth="yes"/>
      <point x="84" y="1197" type="line" smooth="yes"/>
      <point x="84" y="1554"/>
      <point x="209" y="1835"/>
      <point x="610" y="1835" type="curve" smooth="yes"/>
      <point x="691" y="1835"/>
      <point x="762" y="1823"/>
      <point x="822" y="1801" type="curve"/>
      <point x="895" y="2067" type="line"/>
      <point x="992" y="2047" type="line"/>
      <point x="912" y="1757" type="line"/>
      <point x="1077" y="1649"/>
      <point x="1137" y="1441"/>
      <point x="1137" y="1197" type="curve" smooth="yes"/>
      <point x="1137" y="601" type="line" smooth="yes"/>
      <point x="1137" y="254"/>
      <point x="1009" y="-35"/>
      <point x="610" y="-35" type="curve" smooth="yes"/>
      <point x="540" y="-35"/>
      <point x="479" y="-26"/>
      <point x="425" y="-10" type="curve"/>
      <point x="354" y="-270" type="line"/>
    </contour>
  </outline>
</glyph>
<glyph name="germandbls" format="1">
  <advance width="1193"/>
  <unicode hex="00DF"/>
  <outline>
    <contour>
      <point x="99" y="0" type="line"/>
      <point x="99" y="1358" type="line" smooth="yes"/>
      <point x="99" y="1613"/>
      <point x="240" y="1834"/>
      <point x="560" y="1834" type="curve" smooth="yes"/>
      <point x="869" y="1834"/>
      <point x="1021" y="1652"/>
      <point x="1021" y="1349" type="curve" smooth="yes"/>
      <point x="1021" y="1194"/>
      <point x="956" y="1049"/>
      <point x="766" y="977" type="curve"/>
      <point x="1018" y="909"/>
      <point x="1122" y="697"/>
      <point x="1122" y="495" type="curve" smooth="yes"/>
      <point x="1122" y="137"/>
      <point x="931" y="-35"/>
      <point x="528" y="-35" type="curve"/>
      <point x="528" y="215" type="line"/>
      <point x="730" y="215"/>
      <point x="766" y="317"/>
      <point x="766" y="535" type="curve" smooth="yes"/>
      <point x="766" y="701"/>
      <point x="688" y="814"/>
      <point x="529" y="815" type="curve"/>
      <point x="529" y="1068" type="line"/>
      <point x="654" y="1069"/>
      <point x="689" y="1230"/>
      <point x="689" y="1349" type="curve" smooth="yes"/>
      <point x="689" y="1457"/>
      <point x="683" y="1585"/>
      <point x="581" y="1585" type="curve" smooth="yes"/>
      <point x="468" y="1585"/>
      <point x="465" y="1464"/>
      <point x="465" y="1363" type="curve" smooth="yes"/>
      <point x="465" y="0" type="line"/>
    </contour>
  </outline>
</glyph>
<glyph name="kgreenlandic" format="1">
  <advance width="1011"/>
  <unicode hex="0138"/>
  <outline>
    <contour>
      <point x="99" y="0" type="line"/>
      <point x="99" y="1305" type="line"/>
      <point x="436" y="1305" type="line"/>
      <point x="436" y="882" type="line"/>
      <point x="642" y="1305" type="line"/>
      <point x="973" y="1305" type="line"/>
      <point x="702" y="744" type="line"/>
      <point x="972" y="0" type="line"/>
      <point x="633" y="0" type="line"/>
      <point x="471" y="502" type="line"/>
      <point x="436" y="443" type="line"/>
      <point x="436" y="0" type="line"/>
    </contour>
  </outline>
</glyph>
<glyph name="tilde" format="1">
  <advance width="900"/>
  <unicode hex="02DC"/>
  <outline>
    <contour>
      <point x="288" y="1430" type="curve"/>
      <point x="121" y="1430" type="line"/>
      <point x="121" y="1582"/>
      <point x="145" y="1729"/>
      <point x="306" y="1729" type="curve" smooth="yes"/>
      <point x="436" y="1729"/>
      <point x="545" y="1671"/>
      <point x="607" y="1671" type="curve" smooth="yes"/>
      <point x="642" y="1671"/>
      <point x="642" y="1693"/>
      <point x="642" y="1717" type="curve"/>
      <point x="797" y="1717" type="line"/>
      <point x="797" y="1609"/>
      <point x="785" y="1419"/>
      <point x="641" y="1419" type="curve" smooth="yes"/>
      <point x="542" y="1419"/>
      <point x="432" y="1492"/>
      <point x="337" y="1492" type="curve" smooth="yes"/>
      <point x="285" y="1492"/>
      <point x="288" y="1458"/>
    </contour>
  </outline>
</glyph>
<glyph name="uni0311" format="1">
  <advance width="728"/>
  <unicode hex="0311"/>
  <outline>
    <contour>
      <point x="267" y="1438" type="curve"/>
      <point x="95" y="1438" type="line"/>
      <point x="95" y="1586"/>
      <point x="201" y="1686"/>
      <point x="348" y="1686" type="curve" smooth="yes"/>
      <point x="495" y="1686"/>
      <point x="601" y="1586"/>
      <point x="601" y="1438" type="curve"/>
      <point x="429" y="1438" type="line"/>
      <point x="429" y="1487"/>
      <point x="410" y="1565"/>
      <point x="348" y="1565" type="curve" smooth="yes"/>
      <point x="286" y="1565"/>
      <point x="267" y="1487"/>
    </contour>
  </outline>
</glyph>
<glyph name="emdash" format="1">
  <advance width="827"/>
  <unicode hex="2014"/>
  <outline>
    <contour>
      <point x="4" y="453" type="line"/>
      <point x="4" y="676" type="line"/>
      <point x="821" y="676" type="line"/>
      <point x="821" y="453" type="line"/>
    </contour>
  </outline>
</glyph>
<glyph name="quoteright" format="1">
  <advance width="562"/>
  <unicode hex="2019"/>
  <outline>
    <contour>
      <point x="199" y="1281" type="curve"/>
      <point x="115" y="1450" type="line"/>
      <point x="174" y="1449"/>
      <point x="252" y="1464"/>
      <point x="256" y="1537" type="curve"/>
      <point x="128" y="1537" type="line"/>
      <point x="128" y="1834" type="line"/>
      <point x="424" y="1834" type="line"/>
      <point x="424" y="1637"/>
      <point x="483" y="1280"/>
    </contour>
  </outline>
</glyph>
<glyph name="guilsinglleft" format="1">
  <advance width="618"/>
  <unicode hex="2039"/>
  <outline>
    <contour>
      <point x="527" y="64" type="line"/>
      <point x="79" y="576" type="line"/>
      <point x="79" y="704" type="line"/>
      <point x="527" y="1216" type="line"/>
      <point x="527" y="896" type="line"/>
      <point x="271" y="641" type="line"/>
      <point x="527" y="384" type="line"/>
    </contour>
  </outline>
</glyph>
<glyph name="minus" format="1">
  <advance width="895"/>
  <unicode hex="2212"/>
  <outline>
    <contour>
      <point x="137" y="531" type="line"/>
      <point x="137" y="754" type="line"/>
      <point x="747" y="754" type="line"/>
      <point x="747" y="531" type="line"/>
    </contour>
  </outline>
</glyph>
<glyph name="uni2215" format="1">
  <advance width="618"/>
  <unicode hex="2215"/>
  <outline>
    <contour>
      <point x="29" y="0" type="line"/>
      <point x="286" y="1801" type="line"/>
      <point x="485" y="1801" type="line"/>
      <point x="225" y="0" type="line"/>
    </contour>
  </outline>
</glyph>
<glyph name="uniFB01" format="1">
  <advance width="1198"/>
  <unicode hex="FB01"/>
  <outline>
    <contour>
      <point x="765" y="1419" type="line"/>
      <point x="765" y="1734" type="line"/>
      <point x="1102" y="1734" type="line"/>
      <point x="1102" y="1419" type="line"/>
    </contour>
    <contour>
      <point x="141" y="0" type="line"/>
      <point x="141" y="1080" type="line"/>
      <point x="65" y="1080" type="line"/>
      <point x="65" y="1305" type="line"/>
      <point x="141" y="1305" type="line"/>
      <point x="141" y="1315"/>
      <point x="142" y="1324"/>
      <point x="142" y="1334" type="curve" smooth="yes"/>
      <point x="148" y="1537"/>
      <point x="187" y="1735"/>
      <point x="432" y="1735" type="curve" smooth="yes"/>
      <point x="527" y="1735"/>
      <point x="644" y="1721"/>
      <point x="644" y="1721" type="curve"/>
      <point x="644" y="1469" type="line"/>
      <point x="644" y="1469"/>
      <point x="575" y="1475"/>
      <point x="556" y="1475" type="curve" smooth="yes"/>
      <point x="503" y="1475"/>
      <point x="478" y="1452"/>
      <point x="478" y="1366" type="curve" smooth="yes"/>
      <point x="478" y="1305" type="line"/>
      <point x="1102" y="1305" type="line"/>
      <point x="1102" y="0" type="line"/>
      <point x="765" y="0" type="line"/>
      <point x="765" y="1080" type="line"/>
      <point x="478" y="1080" type="line"/>
      <point x="478" y="0" type="line"/>
    </contour>
  </outline>
</glyph>
